<?xml version="1.0" encoding="UTF-8"?>
<svg width="132px" height="143px" viewBox="0 0 132 143" version="1.1" xmlns="http://www.w3.org/2000/svg" xmlns:xlink="http://www.w3.org/1999/xlink">
    <title>CatTube_settings</title>
    <g id="Page-1" stroke="none" stroke-width="1" fill="none" fill-rule="evenodd">
        <g id="CatTube_settings" transform="translate(66, 71.5) scale(-1, 1) translate(-66, -71.5)translate(1, 1)">
            <g id="Слой-2" fill="#3EA6FF" fill-rule="nonzero" stroke="#1D1D1D" stroke-linejoin="round">
                <path d="M104.779546,86.7639918 C104.779546,86.7639918 143.388725,73.5750987 125.066168,12.2494327 C117.105429,-6.35284113 106.759684,-0.643681122 111.632171,8.88529386 C128.150401,39.9813394 112.98843,67.6137859 104.779546,78.1718846 C104.779546,78.1718846 98.795932,39.3335468 73.0410746,32.5753511 L68.2288665,9.14555159 L47.3759313,32.137886 C47.3693007,32.1486925 47.3538293,32.1557968 47.3413718,32.1538957 L44.3062649,31.6882134 C44.2938074,31.6863123 44.2780346,31.6762062 44.2711027,31.6655997 L41.6337313,11.2278135 L23.0977889,33.4455785 C23.0977889,33.4455785 9.79248558,54.2840075 10.9824773,69.192943 C0.953293159,67.5736616 -7.1691917,81.4537736 9.904603,75.9156172 C13.9222442,77.8951169 18.4470258,85.0679639 15.9934025,85.0679639 C4.04526244,80.1811023 -8.1852809,85.0679639 20.6749074,96.6449801 C35.6888962,109.161566 23.4964286,134.323815 19.9430298,139.148739 C16.3897315,143.973663 33.7157904,138.994646 35.5199164,128.537308 C35.5199164,128.537308 56.8625114,134.54595 73.0410746,125.721602 C73.0410746,125.721602 78.6790938,130.976787 73.0410746,139.031668 C73.0410746,142.853985 80.4593094,140.003257 89.8777751,128.846496 C97.6265353,117.43558 106.809916,95.6803955 104.779546,86.7639918 Z" id="Path"></path>
            </g>
            <g id="Слой-1" transform="translate(19.2174, 49)" fill="#EF775C" fill-rule="nonzero" opacity="0.341085">
                <path d="M36.462534,8.42937957 C36.462534,5.90513995 38.6753846,3.85875914 41.40518,3.85875914 C44.1349754,3.85875914 46.3478261,5.90513995 46.3478261,8.42937957 C46.3478261,10.9536192 44.1349754,13 41.40518,13 C38.6753846,13 36.462534,10.9536192 36.462534,8.42937957 Z" id="Path"></path>
                <path d="M0,4.57062043 C0,2.04638081 2.21285068,0 4.94264607,0 C7.67244145,0 9.88529213,2.04638081 9.88529213,4.57062043 C9.88529213,7.09486005 7.67244145,9.14124086 4.94264607,9.14124086 C2.21285068,9.14124086 0,7.09486005 0,4.57062043 Z" id="Path"></path>
            </g>
            <g id="Слой-3" transform="translate(19.2174, 61)" fill="#272727" fill-rule="nonzero">
                <path d="M59.7119697,59 C59.7119697,59 72.1459413,3.55880888 72.3478261,0.350309922 C72.5498499,-2.85818904 1.46443583,17.0183924 0.0259999164,17.4319367 C-1.412436,17.8455804 57.3035518,57.4395118 59.7119697,59 Z" id="Path"></path>
            </g>
            <g id="Слой-6" transform="translate(47.4783, 69)" fill="#3EA6FF" fill-rule="nonzero" stroke="#000000" stroke-linejoin="round" stroke-width="0.101809">
                <path d="M15.3560026,33 L18.5571423,33 C19.1704457,33 19.6955551,32.8331384 20.1344979,32.4984277 C20.5724269,32.1637171 20.8603247,31.7085501 20.9981913,31.1319395 L21.6794143,28.2459242 L22.1862766,28.0761005 L24.769247,29.6193239 C25.2761094,29.938237 25.8103423,30.0626427 26.3699183,29.9905663 C26.9294943,29.91849 27.4262194,29.6716533 27.8600935,29.2490688 L30.0781231,27.1035637 C30.5109835,26.6819666 30.7654284,26.1981665 30.8384166,25.653151 C30.9124185,25.1071481 30.7857029,24.5878036 30.4582698,24.0941301 L28.8423927,21.5931801 L29.0319592,21.1301144 L31.9960901,20.451807 C32.5769544,20.3175278 33.0412403,20.0341592 33.3899616,19.6026886 C33.7386828,19.1702306 33.9130435,18.6607595 33.9130435,18.0742754 L33.9130435,15.0184365 C33.9130435,14.4319523 33.7386828,13.9224813 33.3899616,13.4900233 C33.0412403,13.0575653 32.5769544,12.7751841 31.9960901,12.6409049 L29.0643984,11.9467012 L28.8575986,11.4527315 L30.4744894,8.95227524 C30.8019225,8.45830553 30.9286381,7.94123191 30.8546362,7.40105437 C30.7806343,6.86087682 30.5272031,6.37460843 30.0943427,5.94244665 L27.8752994,3.781539 C27.4525762,3.36991404 26.9619335,3.12811276 26.4013437,3.05613516 C25.8417677,2.98405883 25.3085485,3.10244174 24.8006725,3.41108641 L22.217702,4.95460597 L21.6794143,4.75397706 L20.9981913,1.86756685 C20.8603247,1.30161955 20.5724269,0.848920949 20.1344979,0.509372317 C19.6955551,0.169724949 19.1704457,0 18.5571423,0 L15.3560026,0 C14.7433074,0 14.2176911,0.169724949 13.7792552,0.509372317 C13.3408193,0.848920949 13.0529215,1.30161955 12.9155618,1.86756685 L12.2182206,4.75397706 L11.679426,4.95460597 L9.11216824,3.41108641 C8.59445906,3.10244174 8.05830009,2.98405883 7.50369132,3.05613516 C6.94898119,3.12811276 6.45509453,3.36991404 6.02192998,3.781539 L3.81920767,5.94244665 C3.37550038,6.37460843 3.11923079,6.86087682 3.05060163,7.40105437 C2.98187109,7.94123191 3.11132373,8.45830553 3.43885817,8.95227524 L5.03942804,11.4527315 L4.84925329,11.9467012 L1.9174602,12.6409049 C1.32585049,12.7751841 0.858320672,13.0575653 0.514972128,13.4900233 C0.171623585,13.9224813 -3.58025409e-15,14.4319523 -3.58025409e-15,15.0184365 L-3.58025409e-15,18.0742754 C-3.58025409e-15,18.6607595 0.174259269,19.1702306 0.522980553,19.6026886 C0.871600465,20.0341592 1.33639322,20.3175278 1.9174602,20.451807 L4.88098288,21.1301144 L5.05524215,21.5931801 L3.45467228,24.0941301 C3.12713784,24.5878036 2.99778657,25.1071481 3.06641573,25.653151 C3.13514626,26.1981665 3.39131449,26.6819666 3.83502177,27.1035637 L6.03784546,29.2490688 C6.47101001,29.6716533 6.96753235,29.91849 7.52741248,29.9905663 C8.08739398,30.0626427 8.62618864,29.938237 9.14389783,29.6193239 L11.7111555,28.0761005 L12.2182206,28.2459242 L12.9155618,31.1319395 C13.0529215,31.7085501 13.3408193,32.1637171 13.7792552,32.4984277 C14.2176911,32.8331384 14.7433074,33 15.3560026,33 Z M15.6096365,30.5918607 C15.3454598,30.5918607 15.192286,30.473379 15.1500137,30.2374031 L14.19914,26.4094588 C13.7131604,26.2959139 13.2510033,26.1497865 12.8125674,25.969102 C12.3741315,25.7894049 11.9858749,25.5958849 11.6477977,25.3905167 L8.19302409,27.4590086 C8.00284935,27.5923005 7.80740323,27.5666295 7.60668575,27.3819956 L5.73666786,25.5603404 C5.56767996,25.4063142 5.54649312,25.2157563 5.67331007,24.9896538 L7.79686049,21.655383 C7.61722848,21.3256091 7.43232511,20.9504172 7.24225173,20.5288201 C7.05207699,20.1062355 6.89353045,19.6589674 6.76681487,19.1860281 L2.83660435,18.2747069 C2.59361455,18.2342256 2.47217033,18.0841489 2.47217033,17.8274387 L2.47217033,15.2494757 C2.47217033,15.0026389 2.59361455,14.8535495 2.83660435,14.8022075 L6.75089939,13.876076 C6.87771634,13.3715417 7.04406856,12.9035392 7.25015878,12.4710812 C7.45614764,12.0393144 7.62777122,11.6791302 7.76513091,11.3910223 L5.65749597,8.05704771 C5.52013628,7.83064905 5.53595038,7.63002014 5.70503965,7.45506225 L7.59087164,5.6646072 C7.78104639,5.50001646 7.98176387,5.4742467 8.19302409,5.58739667 L11.6160682,7.60938458 C11.9541453,7.42425702 12.3529446,7.23903072 12.8125674,7.05380443 C13.2720888,6.86857813 13.7396186,6.71415706 14.2150554,6.59073869 L15.1500137,2.76279437 C15.192286,2.5261273 15.3454598,2.40784313 15.6096365,2.40784313 L18.3037111,2.40784313 C18.5672795,2.40784313 18.7152833,2.5261273 18.7477225,2.76279437 L19.7138021,6.62154391 C20.2105272,6.74506102 20.6727857,6.89681625 21.1005775,7.07690835 C21.5283693,7.25700044 21.9166258,7.43965963 22.2653471,7.62488593 L25.7039012,5.58739667 C25.9259069,5.4742467 26.1327067,5.50001646 26.3222732,5.6646072 L28.1925952,7.45506225 C28.3720245,7.63002014 28.3882441,7.83064905 28.2402403,8.05704771 L26.1327067,11.3910223 C26.2796968,11.6791302 26.4540574,12.0393144 26.6547749,12.4710812 C26.8554924,12.9035392 27.0197158,13.3715417 27.1464314,13.876076 L31.0766419,14.8022075 C31.3199358,14.8535495 31.4415828,15.0026389 31.4415828,15.2494757 L31.4415828,17.8274387 C31.4415828,18.0841489 31.3199358,18.2342256 31.0766419,18.2747069 L27.1302118,19.1860281 C27.0034962,19.6589674 26.8483963,20.1062355 26.6628847,20.5288201 C26.4783868,20.9504172 26.2908477,21.3256091 26.1002675,21.655383 L28.2240207,24.9896538 C28.3618872,25.2157563 28.340599,25.4063142 28.1611697,25.5603404 L26.3060536,27.3819956 C26.1053361,27.5666295 25.9046186,27.5923005 25.7039012,27.4590086 L22.2491275,25.3905167 C21.9115572,25.5958849 21.5263418,25.7894049 21.0924677,25.969102 C20.6596072,26.1497865 20.20039,26.2959139 19.7138021,26.4094588 L18.7477225,30.2374031 C18.7152833,30.473379 18.5672795,30.5918607 18.3037111,30.5918607 L15.6096365,30.5918607 Z M16.9565724,22.3958932 C18.0654858,22.3958932 19.077183,22.1312842 19.9915627,21.6010789 C20.9049286,21.0708736 21.6337966,20.3589964 22.1781668,19.4634726 C22.7225369,18.5679489 22.9942151,17.5806019 22.9942151,16.5004443 C22.9942151,15.4301602 22.7225369,14.4497246 22.1781668,13.5591376 C21.6337966,12.669538 20.9049286,11.9595367 19.9915627,11.4296276 C19.077183,10.8996197 18.0654858,10.6347145 16.9565724,10.6347145 C15.8473549,10.6347145 14.8357591,10.8996197 13.9218863,11.4296276 C13.0080135,11.9595367 12.2764084,12.669538 11.7269696,13.5591376 C11.1776322,14.4497246 10.9029129,15.4301602 10.9029129,16.5004443 C10.9029129,17.5806019 11.1776322,18.5659742 11.7269696,19.4555739 C12.2764084,20.3461609 13.0080135,21.0580381 13.9218863,21.5931801 C14.8357591,22.1283222 15.8473549,22.3958932 16.9565724,22.3958932 Z M16.9565724,20.0035515 C16.3016049,20.0035515 15.7020882,19.8465633 15.1579208,19.5325869 C14.6138547,19.2195979 14.1806902,18.7970134 13.8584271,18.2668081 C13.5362654,17.7375901 13.3750832,17.1481439 13.3750832,16.5004443 C13.3750832,15.8616308 13.5362654,15.2810708 13.8584271,14.7558022 C14.1806902,14.2315209 14.6138547,13.8118984 15.1579208,13.4979221 C15.7020882,13.1839457 16.3016049,13.0269576 16.9565724,13.0269576 C17.6010986,13.0269576 18.1932151,13.1839457 18.7315029,13.4979221 C19.2708045,13.8118984 19.7006237,14.2315209 20.0229882,14.7558022 C20.3453526,15.2810708 20.5065348,15.8616308 20.5065348,16.5004443 C20.5065348,17.1382705 20.3453526,17.7217925 20.0229882,18.2519979 C19.7006237,18.7822032 19.2708045,19.2057751 18.7315029,19.5256755 C18.1932151,19.8445886 17.6010986,20.0035515 16.9565724,20.0035515 Z" id="Shape"></path>
            </g>
            <g id="Слой-4" transform="translate(39.5652, 39)" fill-rule="nonzero" stroke="#000000" stroke-linejoin="round">
                <path d="M12.4347826,6.5 C12.4347826,2.9101772 9.65120471,0 6.2173913,0 C2.7835779,0 0,2.9101772 0,6.5 C0,10.089923 2.7835779,13 6.2173913,13 C9.65120471,13 12.4347826,10.089923 12.4347826,6.5 Z" id="Path" fill="#F2F2F2"></path>
                <path d="M6.55994565,6.5 C6.55994565,4.7009322 5.09148551,3.24238829 3.27997283,3.24238829 C1.46846014,3.24238829 0,4.7009322 0,6.5 C0,8.29916795 1.46846014,9.75761171 3.27997283,9.75761171 C5.09148551,9.75761171 6.55994565,8.29916795 6.55994565,6.5 Z" id="Path" fill="#000000"></path>
            </g>
            <g id="Слой-4-скопировать" transform="translate(28.2609, 39)" fill-rule="nonzero" stroke="#000000" stroke-linejoin="round">
                <path d="M10.173913,5 C10.173913,2.2386 7.89644022,0 5.08695652,0 C2.27747283,0 0,2.2386 0,5 C0,7.7615 2.27747283,10 5.08695652,10 C7.89644022,10 10.173913,7.7615 10.173913,5 Z" id="Path" fill="#F2F2F2"></path>
                <path d="M5.36726902,5 C5.36726902,3.6161 4.16579348,2.4942 2.68358152,2.4942 C1.20147554,2.4942 0,3.6161 0,5 C0,6.384 1.20147554,7.5059 2.68358152,7.5059 C4.16579348,7.5059 5.36726902,6.384 5.36726902,5 Z" id="Path" fill="#000000"></path>
            </g>
            <g id="Слой-5" transform="translate(29.3913, 49)" stroke="#000000" stroke-linejoin="round">
                <path d="M9.98603491,1.73784694 C9.98603491,0.937228906 8.63638664,0 7.9335271,0 C7.23066755,0 5.84005205,0.764322501 5.84005205,1.56504635 C5.84005205,2.3657702 6.28427507,1.72081026 7.72829606,3.93663653 C9.08307757,1.72081026 9.98603491,2.53857079 9.98603491,1.73784694 Z" id="Path" fill="#272727" fill-rule="nonzero"></path>
                <path d="M15.826087,6.87752687 C15.826087,6.87752687 15.5405996,8.05697289 14.4858167,8.59092988 C12.8936227,9.39694463 10.0784333,9.27842861 8.05554035,5.75151888 C8.05554035,5.75151888 4.73541746,10.1722722 1.16524636,7.32132704 C0.720825897,6.96641389 0.452613905,6.28854459 0,5.69321323" id="Path"></path>
            </g>
        </g>
    </g>
</svg>